<svg width="505" height="505" viewBox="0 0 505 505" fill="none" xmlns="http://www.w3.org/2000/svg">
<path d="M252.5 505C391.952 505 505 391.952 505 252.5C505 113.048 391.952 0 252.5 0C113.048 0 0 113.048 0 252.5C0 391.952 113.048 505 252.5 505Z" fill="#3A41E4"/>
<path d="M377.7 94.7002H127.3V410.3H309.1L377.7 341.7V94.7002Z" fill="#ECECEC"/>
<path d="M309.1 410.3L377.7 341.7H309.1V410.3Z" fill="#EDF2F2"/>
<path d="M252.5 180.1C265.589 180.1 276.2 169.489 276.2 156.4C276.2 143.311 265.589 132.7 252.5 132.7C239.411 132.7 228.8 143.311 228.8 156.4C228.8 169.489 239.411 180.1 252.5 180.1Z" fill="#3A41E4"/>
<path d="M297.2 235.7C296.6 211.5 276.9 192 252.5 192C228.1 192 208.4 211.5 207.8 235.7H297.2Z" fill="#3A41E4"/>
<path d="M345.9 277.3H159.1V287.6H345.9V277.3Z" fill="#3A41E4"/>
<path d="M345.9 309.8H159.1V320.1H345.9V309.8Z" fill="#3A41E4"/>
<path d="M273.2 342.4H159.1V352.7H273.2V342.4Z" fill="#3A41E4"/>
</svg>
