<svg width="113" height="36" viewBox="0 0 113 36" fill="none" xmlns="http://www.w3.org/2000/svg">
<path d="M0.871306 35.6V31.496H3.37931C4.08864 31.496 4.44331 31.116 4.44331 30.356V9.152H9.23131V31.344C9.23131 32.636 8.85131 33.662 8.09131 34.422C7.33131 35.2073 6.31797 35.6 5.05131 35.6H0.871306ZM6.83731 6.948C5.97597 6.948 5.24131 6.66933 4.63331 6.112C4.05064 5.55466 3.75931 4.82 3.75931 3.908C3.75931 2.996 4.05064 2.26133 4.63331 1.704C5.24131 1.14667 5.97597 0.867998 6.83731 0.867998C7.72397 0.867998 8.45864 1.14667 9.04131 1.704C9.62397 2.26133 9.91531 2.996 9.91531 3.908C9.91531 4.82 9.62397 5.55466 9.04131 6.112C8.45864 6.66933 7.72397 6.948 6.83731 6.948ZM20.1973 28.532C18.8546 28.532 17.6513 28.304 16.5873 27.848C15.5233 27.3667 14.6746 26.6827 14.0413 25.796C13.4333 24.884 13.1293 23.782 13.1293 22.49C13.1293 21.198 13.4333 20.1213 14.0413 19.26C14.6746 18.3733 15.5359 17.7147 16.6253 17.284C17.7399 16.828 19.0066 16.6 20.4253 16.6H25.5933V15.536C25.5933 14.6493 25.3146 13.9273 24.7573 13.37C24.1999 12.7873 23.3133 12.496 22.0973 12.496C20.9066 12.496 20.0199 12.7747 19.4373 13.332C18.8546 13.864 18.4746 14.5607 18.2973 15.422L13.8893 13.94C14.1933 12.9773 14.6746 12.1033 15.3333 11.318C16.0173 10.5073 16.9166 9.86133 18.0313 9.38C19.1713 8.87333 20.5519 8.62 22.1733 8.62C24.6559 8.62 26.6193 9.24067 28.0633 10.482C29.5073 11.7233 30.2293 13.522 30.2293 15.878V22.908C30.2293 23.668 30.5839 24.048 31.2933 24.048H32.8133V28H29.6213C28.6839 28 27.9113 27.772 27.3033 27.316C26.6953 26.86 26.3913 26.252 26.3913 25.492V25.454H25.6693C25.5679 25.758 25.3399 26.1633 24.9853 26.67C24.6306 27.1513 24.0733 27.582 23.3133 27.962C22.5533 28.342 21.5146 28.532 20.1973 28.532ZM21.0333 24.656C22.3759 24.656 23.4653 24.2887 24.3013 23.554C25.1626 22.794 25.5933 21.7933 25.5933 20.552V20.172H20.7673C19.8806 20.172 19.1839 20.362 18.6773 20.742C18.1706 21.122 17.9173 21.654 17.9173 22.338C17.9173 23.022 18.1833 23.5793 18.7153 24.01C19.2473 24.4407 20.0199 24.656 21.0333 24.656ZM36.314 28V9.152H41.102V28H36.314ZM38.708 6.948C37.8467 6.948 37.112 6.66933 36.504 6.112C35.9214 5.55466 35.63 4.82 35.63 3.908C35.63 2.996 35.9214 2.26133 36.504 1.704C37.112 1.14667 37.8467 0.867998 38.708 0.867998C39.5947 0.867998 40.3294 1.14667 40.912 1.704C41.4947 2.26133 41.786 2.996 41.786 3.908C41.786 4.82 41.4947 5.55466 40.912 6.112C40.3294 6.66933 39.5947 6.948 38.708 6.948ZM46.4078 28V9.152H51.1198V11.28H51.8038C52.0824 10.52 52.5384 9.96267 53.1718 9.608C53.8304 9.25333 54.5904 9.076 55.4518 9.076H57.7318V13.332H55.3758C54.1598 13.332 53.1591 13.6613 52.3738 14.32C51.5884 14.9533 51.1958 15.9413 51.1958 17.284V28H46.4078ZM61.4742 35.6V9.152H66.1862V11.432H66.8702C67.3008 10.6973 67.9722 10.0513 68.8842 9.494C69.7962 8.91133 71.1009 8.62 72.7982 8.62C74.3182 8.62 75.7242 9 77.0162 9.76C78.3082 10.4947 79.3469 11.584 80.1322 13.028C80.9175 14.472 81.3102 16.22 81.3102 18.272V18.88C81.3102 20.932 80.9175 22.68 80.1322 24.124C79.3469 25.568 78.3082 26.67 77.0162 27.43C75.7242 28.1647 74.3182 28.532 72.7982 28.532C71.6582 28.532 70.6955 28.3927 69.9102 28.114C69.1502 27.8607 68.5295 27.5313 68.0482 27.126C67.5922 26.6953 67.2248 26.2647 66.9462 25.834H66.2622V35.6H61.4742ZM71.3542 24.352C72.8488 24.352 74.0775 23.8833 75.0402 22.946C76.0282 21.9833 76.5222 20.59 76.5222 18.766V18.386C76.5222 16.562 76.0282 15.1813 75.0402 14.244C74.0522 13.2813 72.8235 12.8 71.3542 12.8C69.8848 12.8 68.6562 13.2813 67.6682 14.244C66.6802 15.1813 66.1862 16.562 66.1862 18.386V18.766C66.1862 20.59 66.6802 21.9833 67.6682 22.946C68.6562 23.8833 69.8848 24.352 71.3542 24.352ZM93.5346 28.532C91.0773 28.532 89.0633 28 87.4926 26.936C85.9219 25.872 84.9719 24.352 84.6426 22.376L89.0506 21.236C89.2279 22.1227 89.5193 22.8193 89.9246 23.326C90.3553 23.8327 90.8746 24.2 91.4826 24.428C92.1159 24.6307 92.7999 24.732 93.5346 24.732C94.6493 24.732 95.4726 24.542 96.0046 24.162C96.5366 23.7567 96.8026 23.2627 96.8026 22.68C96.8026 22.0973 96.5493 21.654 96.0426 21.35C95.5359 21.0207 94.7253 20.7547 93.6106 20.552L92.5466 20.362C91.2293 20.1087 90.0259 19.7667 88.9366 19.336C87.8473 18.88 86.9733 18.2593 86.3146 17.474C85.6559 16.6887 85.3266 15.6753 85.3266 14.434C85.3266 12.5593 86.0106 11.128 87.3786 10.14C88.7466 9.12667 90.5453 8.62 92.7746 8.62C94.8773 8.62 96.6253 9.08867 98.0186 10.026C99.4119 10.9633 100.324 12.192 100.755 13.712L96.3086 15.08C96.1059 14.1173 95.6879 13.4333 95.0546 13.028C94.4466 12.6227 93.6866 12.42 92.7746 12.42C91.8626 12.42 91.1659 12.5847 90.6846 12.914C90.2033 13.218 89.9626 13.6487 89.9626 14.206C89.9626 14.814 90.2159 15.27 90.7226 15.574C91.2293 15.8527 91.9133 16.068 92.7746 16.22L93.8386 16.41C95.2573 16.6633 96.5366 17.0053 97.6766 17.436C98.8419 17.8413 99.7539 18.4367 100.413 19.222C101.097 19.982 101.439 21.0207 101.439 22.338C101.439 24.314 100.717 25.8467 99.2726 26.936C97.8539 28 95.9413 28.532 93.5346 28.532ZM108.636 28.532C107.623 28.532 106.762 28.2027 106.052 27.544C105.368 26.86 105.026 25.986 105.026 24.922C105.026 23.858 105.368 22.9967 106.052 22.338C106.762 21.654 107.623 21.312 108.636 21.312C109.675 21.312 110.536 21.654 111.22 22.338C111.904 22.9967 112.246 23.858 112.246 24.922C112.246 25.986 111.904 26.86 111.22 27.544C110.536 28.2027 109.675 28.532 108.636 28.532Z" fill="#1C1C1D"/>
</svg>
