<svg width="90" height="90" viewBox="0 0 90 90" fill="none" xmlns="http://www.w3.org/2000/svg">
<circle cx="45" cy="45" r="45" fill="#17182B"/>
<path d="M25.9334 62.4V57.864H28.7054C29.4894 57.864 29.8814 57.444 29.8814 56.604V33.168H35.1734V57.696C35.1734 59.124 34.7534 60.258 33.9134 61.098C33.0734 61.966 31.9534 62.4 30.5534 62.4H25.9334ZM32.5274 30.732C31.5754 30.732 30.7634 30.424 30.0914 29.808C29.4474 29.192 29.1254 28.38 29.1254 27.372C29.1254 26.364 29.4474 25.552 30.0914 24.936C30.7634 24.32 31.5754 24.012 32.5274 24.012C33.5074 24.012 34.3194 24.32 34.9634 24.936C35.6074 25.552 35.9294 26.364 35.9294 27.372C35.9294 28.38 35.6074 29.192 34.9634 29.808C34.3194 30.424 33.5074 30.732 32.5274 30.732ZM41.0357 62.4V33.168H46.2437V35.688H46.9997C47.4757 34.876 48.2177 34.162 49.2257 33.546C50.2337 32.902 51.6757 32.58 53.5517 32.58C55.2317 32.58 56.7857 33 58.2137 33.84C59.6417 34.652 60.7897 35.856 61.6577 37.452C62.5257 39.048 62.9597 40.98 62.9597 43.248V43.92C62.9597 46.188 62.5257 48.12 61.6577 49.716C60.7897 51.312 59.6417 52.53 58.2137 53.37C56.7857 54.182 55.2317 54.588 53.5517 54.588C52.2917 54.588 51.2277 54.434 50.3597 54.126C49.5197 53.846 48.8337 53.482 48.3017 53.034C47.7977 52.558 47.3917 52.082 47.0837 51.606H46.3277V62.4H41.0357ZM51.9557 49.968C53.6077 49.968 54.9657 49.45 56.0297 48.414C57.1217 47.35 57.6677 45.81 57.6677 43.794V43.374C57.6677 41.358 57.1217 39.832 56.0297 38.796C54.9377 37.732 53.5797 37.2 51.9557 37.2C50.3317 37.2 48.9737 37.732 47.8817 38.796C46.7897 39.832 46.2437 41.358 46.2437 43.374V43.794C46.2437 45.81 46.7897 47.35 47.8817 48.414C48.9737 49.45 50.3317 49.968 51.9557 49.968ZM70.8908 54.588C69.7708 54.588 68.8188 54.224 68.0348 53.496C67.2788 52.74 66.9008 51.774 66.9008 50.598C66.9008 49.422 67.2788 48.47 68.0348 47.742C68.8188 46.986 69.7708 46.608 70.8908 46.608C72.0388 46.608 72.9908 46.986 73.7468 47.742C74.5028 48.47 74.8808 49.422 74.8808 50.598C74.8808 51.774 74.5028 52.74 73.7468 53.496C72.9908 54.224 72.0388 54.588 70.8908 54.588Z" fill="white"/>
</svg>
