<svg width="43" height="34" viewBox="0 0 43 34" fill="none" xmlns="http://www.w3.org/2000/svg">
<path d="M0.205608 33.2V29.312H2.58161C3.25361 29.312 3.58961 28.952 3.58961 28.232V8.144H8.12561V29.168C8.12561 30.392 7.76561 31.364 7.04561 32.084C6.32561 32.828 5.36561 33.2 4.16561 33.2H0.205608ZM5.85761 6.056C5.04161 6.056 4.34561 5.792 3.76961 5.264C3.21761 4.736 2.94161 4.04 2.94161 3.176C2.94161 2.312 3.21761 1.616 3.76961 1.088C4.34561 0.559999 5.04161 0.295998 5.85761 0.295998C6.69761 0.295998 7.39361 0.559999 7.94561 1.088C8.49761 1.616 8.77361 2.312 8.77361 3.176C8.77361 4.04 8.49761 4.736 7.94561 5.264C7.39361 5.792 6.69761 6.056 5.85761 6.056ZM13.1504 33.2V8.144H17.6144V10.304H18.2624C18.6704 9.608 19.3064 8.996 20.1704 8.468C21.0344 7.916 22.2704 7.64 23.8784 7.64C25.3184 7.64 26.6504 8 27.8744 8.72C29.0984 9.416 30.0824 10.448 30.8264 11.816C31.5704 13.184 31.9424 14.84 31.9424 16.784V17.36C31.9424 19.304 31.5704 20.96 30.8264 22.328C30.0824 23.696 29.0984 24.74 27.8744 25.46C26.6504 26.156 25.3184 26.504 23.8784 26.504C22.7984 26.504 21.8864 26.372 21.1424 26.108C20.4224 25.868 19.8344 25.556 19.3784 25.172C18.9464 24.764 18.5984 24.356 18.3344 23.948H17.6864V33.2H13.1504ZM22.5104 22.544C23.9264 22.544 25.0904 22.1 26.0024 21.212C26.9384 20.3 27.4064 18.98 27.4064 17.252V16.892C27.4064 15.164 26.9384 13.856 26.0024 12.968C25.0664 12.056 23.9024 11.6 22.5104 11.6C21.1184 11.6 19.9544 12.056 19.0184 12.968C18.0824 13.856 17.6144 15.164 17.6144 16.892V17.252C17.6144 18.98 18.0824 20.3 19.0184 21.212C19.9544 22.1 21.1184 22.544 22.5104 22.544ZM38.7405 26.504C37.7805 26.504 36.9645 26.192 36.2925 25.568C35.6445 24.92 35.3205 24.092 35.3205 23.084C35.3205 22.076 35.6445 21.26 36.2925 20.636C36.9645 19.988 37.7805 19.664 38.7405 19.664C39.7245 19.664 40.5405 19.988 41.1885 20.636C41.8365 21.26 42.1605 22.076 42.1605 23.084C42.1605 24.092 41.8365 24.92 41.1885 25.568C40.5405 26.192 39.7245 26.504 38.7405 26.504Z" fill="#373535"/>
</svg>
